# Blender v2.77 (sub 0) OBJ File: 'level0.blend'
# www.blender.org
mtllib test_level_grass.mtl
o tree_Cylinder
v 3.704290 -6.049355 -15.345043
v 4.459003 -5.538736 -17.469364
v 4.653493 -6.400384 -21.330072
v 3.917163 -6.782910 -7.040273
v 3.635145 -6.400384 -7.870993
v 3.829634 -5.538736 -7.653000
v 4.653493 -5.924083 -6.962693
v 4.296926 -6.608208 -6.352705
v -0.967483 -6.608208 -6.794127
v -0.937150 -5.665283 -7.159351
v 4.144319 -5.391542 -6.962693
v 3.437583 -5.984710 -6.320060
v -0.650783 -5.898160 -4.494407
v -0.650783 -5.016482 -4.780882
v -0.650783 -4.471575 -5.530882
v -0.650783 -4.471575 -6.457933
v -0.650783 -5.016482 -7.207932
v -0.650783 -5.898160 -7.494407
v -0.650783 -6.779838 -7.207932
v -0.650783 -7.324745 -6.457933
v -0.650783 -7.324745 -5.530881
v -0.650783 -6.779838 -4.780881
v -0.487629 -5.898160 -4.044407
v -0.487629 -4.751979 -4.416824
v 2.512372 -4.751979 -4.416824
v 2.512372 -5.898160 -4.044407
v -0.487629 -4.043600 -5.391824
v 2.512371 -4.043600 -5.391824
v -0.487629 -4.043600 -6.596990
v 2.512371 -4.043600 -6.596991
v -0.487629 -4.751979 -7.571990
v 2.512371 -4.751979 -7.571990
v -0.487629 -5.898160 -7.944407
v 2.512371 -5.898160 -7.944407
v -0.487629 -7.044342 -7.571990
v 2.512371 -7.044342 -7.571990
v -0.487629 -7.752720 -6.596991
v 2.512371 -7.752720 -6.596991
v -0.487629 -7.752720 -5.391824
v 2.512371 -7.752720 -5.391824
v -0.487629 -7.044341 -4.416823
v 2.512372 -7.044341 -4.416824
v 3.467582 -4.884231 -4.598853
v 3.467582 -4.257587 -5.461353
v 3.467582 -5.898160 -4.269407
v 3.467582 -4.257587 -6.527462
v 3.467582 -4.884231 -7.389962
v 3.467582 -5.898160 -7.719407
v 3.467582 -6.912090 -7.389961
v 3.467582 -7.538733 -6.527462
v 3.467582 -6.912089 -4.598853
v 3.467582 -7.538733 -5.461353
v 3.467582 -7.388195 -3.943549
v 2.512372 -7.388195 -3.943549
v 2.512371 -8.309088 -5.211049
v 3.467582 -8.309088 -5.211049
v 3.467582 -4.408125 -8.045265
v 2.512371 -4.408125 -8.045265
v 2.512371 -3.487232 -6.777765
v 3.467582 -3.487232 -6.777765
v 2.512372 -4.408124 -3.943549
v 2.512372 -5.898160 -3.459407
v 2.512371 -3.487232 -5.211049
v 2.512371 -5.898160 -8.529408
v 2.512371 -7.388196 -8.045265
v 2.512371 -8.309088 -6.777766
v 3.467582 -4.408124 -3.943549
v 3.467582 -5.898160 -3.459407
v 3.467582 -3.487232 -5.211049
v 3.467582 -5.898160 -8.529408
v 3.467582 -7.388196 -8.045265
v 3.467582 -8.309088 -6.777766
v -5.920061 -5.354043 5.946188
v -4.934407 -4.240317 6.723052
v -3.933506 -6.921587 6.723052
v -5.911764 -6.278823 5.759418
v -5.725432 -6.199729 5.879079
v -5.851741 -5.750934 5.901930
v -5.879423 -5.365346 5.966377
v -6.623919 -5.166139 5.388626
v -6.299082 -5.241133 5.955808
v -5.957839 -5.373955 5.123524
v -6.623919 -5.166139 5.951646
v -6.751997 -5.379298 5.811703
v -6.887217 -5.604340 5.663959
v -8.511843 -3.333958 6.723052
v -3.933506 -5.617942 11.085650
v -6.553862 -8.825429 6.723052
v -6.553862 -6.473730 5.633589
v -6.504557 -6.530448 5.676460
v -5.925047 -6.284461 5.757560
v -5.725432 -6.199729 5.388626
v -5.839136 -5.313320 0.829412
v -6.553862 -3.714099 11.085650
v -7.059853 -5.891654 5.388626
v -7.059853 -5.891654 5.730039
v -6.801793 -6.188518 5.567416
v -9.174217 -7.320723 6.723052
v -6.953935 -6.013498 5.663292
v -4.934407 -9.821198 11.143729
v -6.504557 -6.530448 5.388626
v -5.595728 -6.221731 0.873628
v -6.778304 -5.264100 1.094955
v -9.174217 -5.617942 11.085650
v -6.553862 -6.469332 12.788479
v -8.173317 -9.821198 11.143729
v -7.115333 -6.142092 0.766855
v -6.384461 -6.733940 1.473533
v -5.574267 -5.342733 0.203229
v -5.540729 -5.447904 0.195264
v -6.662819 -5.008764 0.194438
v -6.541847 -5.028473 0.204620
v -5.535959 -6.511278 0.136421
v -5.551972 -6.527387 0.136574
v -5.642773 -4.596759 0.248737
v -5.654907 -4.447747 0.254135
v -5.656404 -4.417813 0.252980
v -5.657604 -4.376959 0.249396
v -5.606031 -3.899096 0.051204
v -5.616532 -3.705232 0.045639
v -5.105860 -5.981189 0.137690
v -7.516489 -5.042212 0.128564
v -5.691663 -3.791657 0.046400
v -5.766719 -3.884882 0.051140
v -5.865666 -4.293734 0.222681
v -6.097355 -4.557061 0.223182
v -7.320444 -5.955216 0.171335
v -7.304308 -5.889517 0.174054
v -6.646587 -7.267910 0.132716
v -6.670339 -7.232255 0.133679
v -6.149217 -6.926401 0.153367
v -7.305518 -5.883060 0.174277
v -7.709495 -6.874547 0.130718
vn 0.2845 0.9580 -0.0363
vn 0.3907 -0.9205 0.0000
vn 0.9626 0.2709 0.0000
vn 0.9919 0.0868 -0.0932
vn 0.3057 0.9519 0.0219
vn 0.2250 0.9744 0.0000
vn -0.8572 0.5150 0.0000
vn -0.7547 -0.6561 -0.0000
vn 0.9600 0.2786 0.0262
vn 0.9651 0.2601 0.0304
vn 0.0454 0.9987 -0.0244
vn -0.8570 0.5149 0.0191
vn -0.7540 -0.6554 0.0446
vn 0.3900 -0.9189 0.0597
vn 0.5552 -0.8315 0.0200
vn 0.8942 0.2574 0.3662
vn 0.1306 0.9493 0.2859
vn -0.9325 0.3611 -0.0084
vn -0.6409 -0.7673 0.0202
vn 0.6742 -0.6672 0.3167
vn 0.9203 0.0609 0.3864
vn 0.6556 0.4709 0.5903
vn -0.0582 0.9624 0.2654
vn -0.4932 0.4354 0.7532
vn -0.9034 0.2063 0.3759
vn -0.7721 -0.5240 0.3596
vn 0.7413 -0.6021 0.2966
vn -0.5467 0.8092 -0.2154
vn 0.8016 0.1698 -0.5732
vn -0.8502 0.3421 0.4002
vn -0.1917 -0.5503 0.8127
vn 0.2845 0.9580 -0.0362
vn -0.3907 0.9205 -0.0001
vn 0.5467 -0.8092 0.2154
vn -0.8016 -0.1699 0.5733
vn 0.4771 0.1781 -0.8606
vn 0.1245 0.4912 -0.8621
vn 0.9318 0.3478 -0.1039
vn 0.2921 -0.4020 -0.8678
vn 0.2455 0.9691 -0.0257
vn -0.4662 0.0775 -0.8813
vn 0.9707 -0.2302 0.0688
vn 0.5836 0.8032 0.1197
vn 0.5462 -0.7518 -0.3694
vn -0.2346 -0.4086 -0.8820
vn -0.5575 0.7673 0.3171
vn -0.9845 0.1636 -0.0638
vn 0.5687 -0.1242 0.8131
vn 0.3568 0.4911 0.7947
vn 0.0000 -0.9756 -0.2197
vn -0.4658 -0.8112 -0.3534
vn -0.3568 0.4911 0.7947
vn -0.9692 -0.2295 0.0896
vn 0.0000 -0.4405 0.8977
vn -0.5687 -0.1242 0.8131
vn 0.1244 0.4912 -0.8621
vn 0.2920 -0.4020 -0.8678
vn -0.8244 0.5422 -0.1625
vn -0.6361 0.7705 -0.0408
vn -0.6228 -0.7806 -0.0530
vn -0.7639 -0.6442 -0.0373
vn -0.9755 0.2199 0.0013
vn -0.3793 0.9250 -0.0243
vn 0.9666 0.2562 -0.0085
vn 0.4217 -0.9067 -0.0025
vn -0.0530 -0.9138 -0.4028
vn -0.1063 0.2664 -0.9580
vn 0.7227 0.6910 0.0120
vn 0.8921 -0.4516 0.0150
vn -0.0216 -0.9661 0.2574
vn -0.1986 -0.3484 -0.9161
vn -0.0456 0.9810 -0.1884
vn 0.4137 0.3955 0.8200
vn 0.3872 0.4929 0.7792
vn -0.0824 -0.1650 0.9828
vn -0.1502 0.3613 0.9203
vn -0.0660 0.7684 0.6366
vn 0.0000 0.3090 0.9511
vn 0.0000 0.8090 0.5878
vn -0.0000 1.0000 -0.0000
vn -0.0000 0.8090 -0.5878
vn 0.0000 0.3090 -0.9511
vn 0.0000 -0.3090 -0.9511
vn 0.0000 -0.8090 -0.5878
vn 0.0000 -1.0000 0.0000
vn 0.0000 -0.8090 0.5878
vn 0.0000 -0.3090 0.9511
vn -1.0000 -0.0000 0.0000
vn 1.0000 -0.0000 0.0000
vn 0.0519 0.3086 -0.9498
vn 0.0519 -0.3086 0.9498
vn 0.0519 -0.8079 0.5870
vn 0.0519 0.8079 0.5870
vn 0.0519 -0.9987 0.0000
vn 0.0519 0.8079 -0.5870
vn 0.0519 0.9987 0.0000
vn 0.0519 0.3086 0.9498
vn 0.0519 -0.3086 -0.9498
vn 0.0519 -0.8079 -0.5870
usemtl #6B5A2B
s off
f 81//1 73//1 82//1
f 77//2 91//2 92//2
f 92//3 78//3 77//3
f 78//4 82//4 79//4
f 93//5 80//5 82//5
f 81//6 80//6 83//6
f 83//7 80//7 84//7
f 95//7 85//7 80//7
f 95//8 101//8 97//8
f 101//2 91//2 90//2
f 102//9 82//9 92//9
f 102//10 93//10 82//10
f 93//11 103//11 80//11
f 103//12 95//12 80//12
f 96//8 95//8 99//8
f 107//13 101//13 95//13
f 108//14 92//14 101//14
f 108//15 102//15 92//15
f 93//16 110//16 109//16
f 103//17 112//17 111//17
f 103//18 107//18 95//18
f 107//19 108//19 101//19
f 102//20 114//20 113//20
f 93//21 117//21 118//21
f 110//22 102//22 121//22
f 122//23 103//23 111//23
f 120//24 123//24 125//24
f 107//25 128//25 127//25
f 129//26 107//26 130//26
f 121//27 102//27 113//27
f 114//28 129//28 131//28
f 128//29 122//29 132//29
f 133//30 107//30 127//30
f 130//31 107//31 133//31
f 82//1 80//1 81//1
f 73//32 79//32 82//32
f 77//33 76//33 91//33
f 92//3 82//3 78//3
f 84//7 80//7 85//7
f 95//7 96//7 85//7
f 101//8 90//8 89//8
f 97//8 99//8 95//8
f 101//8 89//8 97//8
f 101//2 92//2 91//2
f 93//16 102//16 110//16
f 103//17 93//17 112//17
f 102//20 108//20 114//20
f 93//21 109//21 115//21
f 93//21 115//21 116//21
f 119//21 120//21 118//21
f 118//21 120//21 93//21
f 93//21 116//21 117//21
f 126//24 112//24 93//24
f 93//24 120//24 125//24
f 123//24 124//24 125//24
f 125//24 126//24 93//24
f 107//25 103//25 128//25
f 129//26 108//26 107//26
f 114//34 108//34 129//34
f 128//35 103//35 122//35
usemtl #A1E72D
f 75//36 78//36 74//36
f 83//37 84//37 86//37
f 75//38 74//38 87//38
f 75//39 88//39 76//39
f 74//40 86//40 94//40
f 86//41 85//41 96//41
f 75//42 87//42 100//42
f 74//43 94//43 87//43
f 88//44 75//44 100//44
f 88//45 97//45 89//45
f 86//46 104//46 94//46
f 86//47 98//47 104//47
f 100//48 87//48 105//48
f 87//49 94//49 105//49
f 88//50 100//50 106//50
f 98//51 88//51 106//51
f 94//52 104//52 105//52
f 98//53 106//53 104//53
f 106//54 100//54 105//54
f 104//55 106//55 105//55
f 79//36 73//36 74//36
f 75//36 76//36 77//36
f 77//36 78//36 75//36
f 79//36 74//36 78//36
f 86//37 74//37 83//37
f 74//37 73//37 81//37
f 84//37 85//37 86//37
f 74//56 81//56 83//56
f 91//57 76//57 88//57
f 88//39 89//39 90//39
f 90//39 91//39 88//39
f 99//41 97//41 98//41
f 98//41 86//41 96//41
f 96//41 99//41 98//41
f 88//45 98//45 97//45
usemtl #91C1FF
f 1//58 2//58 3//58
f 2//59 1//59 6//59
f 1//60 3//60 4//60
f 1//61 4//61 5//61
f 1//62 5//62 6//62
f 2//63 6//63 11//63
f 3//64 2//64 7//64
f 4//65 3//65 8//65
f 5//66 4//66 9//66
f 6//67 5//67 10//67
f 2//68 11//68 7//68
f 3//69 7//69 8//69
f 4//70 8//70 9//70
f 5//71 9//71 10//71
f 6//72 10//72 11//72
f 7//73 11//73 12//73
f 8//74 7//74 12//74
f 9//75 8//75 12//75
f 10//76 9//76 12//76
f 11//77 10//77 12//77
usemtl #A49FAA
f 26//78 24//78 23//78
f 24//79 28//79 27//79
f 28//80 29//80 27//80
f 30//81 31//81 29//81
f 32//82 33//82 31//82
f 33//83 36//83 35//83
f 36//84 37//84 35//84
f 38//85 39//85 37//85
f 40//86 41//86 39//86
f 41//87 26//87 23//87
f 33//88 37//88 41//88
f 26//78 25//78 24//78
f 24//79 25//79 28//79
f 28//80 30//80 29//80
f 30//81 32//81 31//81
f 32//82 34//82 33//82
f 33//83 34//83 36//83
f 36//84 38//84 37//84
f 38//85 40//85 39//85
f 40//86 42//86 41//86
f 41//87 42//87 26//87
f 41//88 23//88 24//88
f 24//88 27//88 29//88
f 29//88 31//88 33//88
f 33//88 35//88 37//88
f 37//88 39//88 41//88
f 41//88 24//88 29//88
f 29//88 33//88 41//88
usemtl #7E7E7E
f 44//89 67//89 43//89
f 34//88 58//88 64//88
f 51//89 56//89 52//89
f 45//89 67//89 68//89
f 36//88 66//88 38//88
f 52//89 72//89 50//89
f 25//88 63//88 28//88
f 50//89 71//89 49//89
f 40//88 54//88 42//88
f 30//88 58//88 32//88
f 65//84 72//84 66//84
f 61//79 69//79 63//79
f 54//86 56//86 53//86
f 59//81 57//81 58//81
f 58//82 70//82 64//82
f 54//87 68//87 62//87
f 63//80 60//80 59//80
f 66//85 56//85 55//85
f 62//78 67//78 61//78
f 64//83 71//83 65//83
f 26//88 54//88 62//88
f 45//89 53//89 51//89
f 44//89 60//89 69//89
f 28//88 59//88 30//88
f 38//88 55//88 40//88
f 26//88 61//88 25//88
f 46//89 57//89 60//89
f 48//89 57//89 47//89
f 34//88 65//88 36//88
f 48//89 71//89 70//89
f 44//89 69//89 67//89
f 34//88 32//88 58//88
f 51//89 53//89 56//89
f 45//89 43//89 67//89
f 36//88 65//88 66//88
f 52//89 56//89 72//89
f 25//88 61//88 63//88
f 50//89 72//89 71//89
f 40//88 55//88 54//88
f 30//88 59//88 58//88
f 65//84 71//84 72//84
f 61//79 67//79 69//79
f 54//86 55//86 56//86
f 59//81 60//81 57//81
f 58//82 57//82 70//82
f 54//87 53//87 68//87
f 63//80 69//80 60//80
f 66//85 72//85 56//85
f 62//78 68//78 67//78
f 64//83 70//83 71//83
f 26//88 42//88 54//88
f 45//89 68//89 53//89
f 44//89 46//89 60//89
f 28//88 63//88 59//88
f 38//88 66//88 55//88
f 26//88 62//88 61//88
f 46//89 47//89 57//89
f 48//89 70//89 57//89
f 34//88 64//88 65//88
f 48//89 49//89 71//89
usemtl #424242
f 13//90 51//90 22//90
f 18//91 47//91 17//91
f 17//92 46//92 16//92
f 19//93 50//93 49//93
f 15//94 46//94 44//94
f 21//95 51//95 52//95
f 20//96 52//96 50//96
f 19//97 48//97 18//97
f 14//98 45//98 13//98
f 15//99 43//99 14//99
f 13//90 45//90 51//90
f 18//91 48//91 47//91
f 17//92 47//92 46//92
f 19//93 20//93 50//93
f 15//94 16//94 46//94
f 21//95 22//95 51//95
f 20//96 21//96 52//96
f 19//97 49//97 48//97
f 14//98 43//98 45//98
f 15//99 44//99 43//99
