# Blender v2.77 (sub 0) OBJ File: 'level0.blend'
# www.blender.org
mtllib test_level.mtl
o Cube
v -12.000000 0.000000 -12.000000
v 0.000000 0.000000 -12.000000
v -0.000000 -12.000000 -12.000000
v -12.000001 -11.999999 -12.000000
v -11.999999 0.000001 0.000000
v 0.000001 -0.000001 0.233869
v -0.000001 -12.000001 0.000000
v -12.000000 -12.000000 0.000000
v -24.000000 0.000002 0.000001
v -24.000000 -11.999999 0.000001
v -11.999998 0.000001 12.000000
v -11.999999 -12.000000 12.000000
v -24.000000 0.000002 12.000001
v -24.000000 -11.999999 12.000001
v -5.999999 -0.000000 0.188314
v -12.000000 -6.000000 0.000000
v 0.000000 -6.000001 -0.154075
v -6.000000 -12.000000 -0.273911
v -5.599999 -4.400001 0.256792
v -2.999999 -0.000001 0.000000
v -12.000000 -9.000000 0.000000
v -0.000000 -9.000001 0.000000
v -9.000000 -12.000000 0.000000
v -10.200000 -8.400000 0.034239
v -8.999999 0.000000 0.000000
v -12.000000 -2.999999 0.000000
v 0.000001 -3.000001 0.000000
v -3.000000 -12.000000 0.000000
v -3.599999 -4.200001 0.102717
v -3.000000 -6.000001 0.000000
v -6.599999 -9.000000 0.068478
v -4.000000 -8.600000 0.000000
v -9.000000 -3.000000 0.205434
v -9.400000 -5.600000 0.000000
v -7.599999 -3.600001 0.000000
vn -0.0190 0.0000 0.9998
vn -0.0000 0.0000 1.0000
vn 0.0000 -0.0095 1.0000
vn -0.0909 -0.0267 0.9955
vn -0.0683 0.0000 0.9977
vn 0.0124 -0.0807 0.9967
vn 0.0624 -0.0798 0.9949
vn -0.0215 0.0275 0.9994
vn -0.0777 0.0355 0.9963
vn 0.1034 -0.0977 0.9898
vn 0.1048 -0.0944 0.9900
vn -0.0682 0.0682 0.9953
vn -0.0625 0.0682 0.9957
vn 0.0051 0.0513 0.9987
vn 0.0513 -0.0197 0.9985
vn 0.0423 -0.1049 0.9936
vn 0.0543 -0.0776 0.9955
vn 0.0427 -0.0427 0.9982
vn 0.0512 -0.0512 0.9974
vn -0.0117 -0.0134 0.9998
vn 0.0905 -0.0950 0.9913
vn -0.0255 0.0195 0.9995
vn 0.0000 0.0000 -1.0000
vn 0.0000 1.0000 -0.0000
vn 1.0000 -0.0000 -0.0000
vn -0.0000 -1.0000 0.0000
vn -0.7071 0.0000 -0.7071
vn -1.0000 0.0000 0.0000
vn 0.0798 -0.0303 0.9964
vn 0.0647 -0.0548 0.9964
vn 0.0332 0.3798 0.9245
vn -0.0937 0.0843 0.9920
vn 0.0280 -0.0108 0.9996
vn -0.0157 -0.0375 0.9992
vn -0.0782 0.0345 0.9963
usemtl #119900
s off
f 8//1 24//1 21//1
f 11//2 14//2 12//2
f 8//3 23//3 24//3
f 11//2 13//2 14//2
f 18//4 28//4 32//4
f 16//5 33//5 26//5
f 16//6 34//6 33//6
f 35//7 20//7 15//7
f 35//8 29//8 20//8
f 29//9 6//9 20//9
f 33//10 35//10 15//10
f 33//11 34//11 35//11
f 26//2 25//2 5//2
f 26//12 33//12 25//12
f 33//13 15//13 25//13
f 32//14 22//14 17//14
f 32//2 28//2 22//2
f 28//2 7//2 22//2
f 30//15 32//15 17//15
f 31//16 18//16 32//16
f 29//17 27//17 6//17
f 29//18 30//18 27//18
f 30//19 17//19 27//19
f 24//20 23//20 31//20
f 23//21 18//21 31//21
f 21//2 34//2 16//2
f 21//22 24//22 34//22
usemtl #CEE4D4
f 2//23 4//23 1//23
f 5//24 2//24 1//24
f 6//25 3//25 2//25
f 7//26 4//26 3//26
f 5//24 1//24 9//24
f 9//24 11//24 5//24
f 10//27 1//27 4//27
f 10//28 13//28 9//28
f 12//25 21//25 16//25
f 10//26 12//26 14//26
f 8//26 10//26 4//26
f 2//23 3//23 4//23
f 15//24 20//24 2//24
f 22//25 7//25 3//25
f 23//26 8//26 4//26
f 9//24 13//24 11//24
f 10//27 9//27 1//27
f 10//28 14//28 13//28
f 5//25 11//25 12//25
f 10//26 8//26 12//26
f 26//25 5//25 12//25
f 12//25 8//25 21//25
f 16//25 26//25 12//25
f 2//24 5//24 25//24
f 25//24 15//24 2//24
f 20//24 6//24 2//24
f 3//25 6//25 27//25
f 17//25 22//25 3//25
f 3//25 27//25 17//25
f 4//26 7//26 28//26
f 18//26 23//26 4//26
f 4//26 28//26 18//26
usemtl #A1E72D
f 19//29 30//29 29//29
f 19//30 31//30 30//30
f 19//31 29//31 35//31
f 34//32 19//32 35//32
f 30//33 31//33 32//33
f 24//34 31//34 19//34
f 24//35 19//35 34//35
