# Blender v2.77 (sub 0) OBJ File: ''
# www.blender.org
mtllib tree2.mtl
o Cylinder
v -0.018886 -0.720161 -0.373037
v 0.161257 -1.314390 -0.198870
v -0.018886 -1.314390 -0.264436
v 0.231064 -0.720161 -0.282063
v 0.257109 -1.314390 -0.032850
v 0.317871 -0.720161 0.210242
v 0.223820 -1.314390 0.155942
v 0.114110 -0.720161 0.381218
v 0.076966 -1.314390 0.279167
v -0.151881 -0.720161 0.381218
v -0.114738 -1.314390 0.279166
v -0.355642 -0.720161 0.210242
v -0.261591 -1.314390 0.155942
v -0.294880 -1.314390 -0.032850
v -0.199028 -1.314390 -0.198870
v -0.268836 -0.720161 -0.282063
v 0.231064 -1.895607 -0.282063
v -0.355642 -1.895607 0.210242
v -0.401831 -1.895607 -0.051708
v -0.268836 -1.895607 -0.282063
v -0.018886 -1.895607 -0.373037
v -0.151881 -1.895607 0.381218
v 0.114110 -1.895607 0.381218
v 0.317871 -1.895607 0.210242
v 0.364060 -1.895607 -0.051708
v 0.364060 -0.720161 -0.051708
v -0.401831 -0.720161 -0.051708
v 0.019167 3.227034 0.022686
v 0.199847 2.466368 -0.186952
v 0.015674 2.466367 -0.253986
v 0.033842 3.227034 0.034999
v 0.292234 2.403041 -0.023413
v 0.263809 2.466367 0.175798
v 0.032072 3.227034 0.045037
v 0.113670 2.466367 0.301780
v 0.014070 3.227034 0.051589
v -0.087932 2.403041 0.295584
v -0.232462 2.466367 0.175798
v 0.004492 3.227034 0.034999
v -0.266496 2.466367 -0.017217
v 0.024263 3.227034 0.051589
v 0.009589 3.227034 0.026172
v -0.174109 2.403041 -0.193148
v 0.979368 -1.003520 -0.113076
v -0.353069 -0.872769 0.994068
v -0.005440 -0.809443 -0.939428
v -1.162461 -1.054853 -0.150182
v -0.569643 -0.516713 -0.618026
v -0.766733 -1.118179 -0.851516
v -0.006855 -1.054853 -1.119851
v -1.023078 -1.054853 0.640299
v -0.862932 -0.453387 -0.094124
v -0.306797 -0.516713 0.872648
v -0.413802 -1.118179 1.150053
v 0.394483 -1.054853 1.156250
v 1.009368 -1.054853 0.640300
v 0.296607 -0.453387 0.878845
v 0.858351 -0.453387 -0.094124
v 1.143143 -1.118179 -0.156378
v 0.747414 -1.054853 -0.845319
v -0.002290 -0.453387 -0.816288
v -0.470645 1.692862 -0.047718
v -0.106769 2.453131 -0.103204
v -0.309076 1.629535 -0.343475
v 0.010725 1.692862 -0.451635
v -0.412585 1.692862 0.281558
v -0.162981 2.516458 0.010068
v -0.052405 2.453131 0.205109
v -0.162062 1.629536 0.490282
v 0.177903 1.692862 0.496478
v 0.434034 1.692862 0.281558
v 0.076845 2.516458 0.211305
v 0.193029 2.516458 0.010068
v 0.486486 1.629535 -0.053915
v 0.324917 1.692862 -0.337279
v 0.015024 2.516458 -0.139296
v 0.010529 1.745409 -0.315061
v 0.463775 0.842699 -0.504165
v 0.005286 0.842699 -0.671042
v 0.365764 1.745409 -0.016983
v 0.702124 0.779372 -0.087815
v 0.623007 0.842699 0.398883
v 0.133901 1.745409 0.384616
v 0.249243 0.842699 0.712509
v -0.118452 1.682083 0.378420
v -0.244281 0.779373 0.706312
v -0.612436 0.842699 0.398883
v -0.344706 1.745409 -0.016983
v -0.697161 0.842699 -0.081619
v -0.226943 1.682082 -0.236866
v -0.458813 0.779373 -0.510362
v -0.864248 0.078844 -0.105654
v -0.359524 0.831434 -0.384325
v -0.569569 0.015518 -0.631965
v 0.000399 0.078844 -0.831178
v -0.759959 0.078845 0.485799
v -0.545192 0.894761 -0.046827
v -0.191317 0.831434 0.569622
v -0.305499 0.015518 0.865646
v 0.300687 0.078845 0.871843
v 0.760756 0.078844 0.485799
v 0.196847 0.894761 0.575818
v 0.556331 0.894761 -0.046827
v 0.859436 0.015518 -0.111850
v 0.564756 0.078845 -0.625769
v 0.005569 0.894761 -0.508971
v 0.001149 0.136518 -0.681816
v 0.669916 -0.512940 -0.752068
v -0.003388 -0.512941 -0.997131
v 0.726197 0.136518 -0.073428
v 1.022565 -0.576267 -0.137744
v 0.903752 -0.512940 0.574081
v 0.252955 0.136519 0.746250
v 0.354870 -0.512940 1.034648
v -0.256267 0.073192 0.740054
v -0.367254 -0.576267 1.028452
v -0.910528 -0.512940 0.574081
v -0.723899 0.136518 -0.073428
v -1.034949 -0.512941 -0.131548
v -0.477702 0.073192 -0.515766
v -0.682301 -0.576267 -0.758265
v -0.141511 2.516458 0.131830
v 0.171559 2.516458 0.131830
v 0.131209 2.516458 -0.097008
v 0.242392 1.745409 -0.230669
v 0.322917 1.745409 0.226012
v -0.301860 1.745409 0.226012
v -0.478762 0.894761 0.329916
v 0.489901 0.894761 0.329917
v 0.365054 0.894761 -0.378129
v 0.474390 0.136519 -0.509570
v 0.638746 0.136519 0.422534
v -0.636448 0.136519 0.422534
v -0.759126 -0.453387 0.494589
v 0.754545 -0.453387 0.494589
v 0.559453 -0.453387 -0.611830
v 0.637348 -0.809443 -0.705472
v 0.860586 -1.003520 0.560572
v 0.336580 -0.809443 1.000265
v -0.871465 -1.003520 0.560572
v -0.990247 -1.003520 -0.113076
v -0.653837 -1.066847 -0.711668
v 0.028745 3.227034 0.026172
v 0.006262 3.227034 0.045037
vn 0.3371 -0.1693 -0.9261
vn 0.8535 -0.1693 -0.4928
vn 0.9706 -0.1693 0.1711
vn 0.6335 -0.1693 0.7550
vn -0.0000 -0.1693 0.9856
vn -0.6335 -0.1693 0.7550
vn -0.9706 -0.1693 0.1711
vn -0.3371 -0.1693 -0.9261
vn -0.8535 -0.1693 -0.4928
vn -0.8530 0.1729 -0.4925
vn -0.3369 0.1729 -0.9255
vn -0.9700 0.1729 0.1710
vn -0.6331 0.1729 0.7545
vn -0.0000 0.1729 0.9849
vn 0.6331 0.1729 0.7545
vn 0.9700 0.1729 0.1710
vn 0.8530 0.1729 -0.4925
vn 0.3369 0.1729 -0.9255
vn 0.3238 0.3221 -0.8896
vn 0.8751 0.3014 -0.3786
vn 0.8292 0.3156 -0.4613
vn 0.8754 0.3013 -0.3779
vn 0.9389 0.3111 0.1474
vn 0.9541 0.2964 0.0429
vn 0.9542 0.2962 0.0420
vn 0.6108 0.3112 0.7280
vn 0.6109 0.3112 0.7280
vn -0.1211 0.2958 0.9475
vn -0.0176 0.3103 0.9505
vn -0.1220 0.2957 0.9475
vn -0.5989 0.3144 0.7365
vn -0.5277 0.3007 0.7944
vn -0.5271 0.3006 0.7949
vn -0.9327 0.3210 0.1645
vn 0.0000 1.0000 0.0000
vn -0.3321 0.3237 -0.8860
vn -0.3833 0.3165 -0.8677
vn -0.3837 0.3165 -0.8675
vn -0.7885 0.3163 -0.5274
vn -0.8150 0.3232 -0.4809
vn -0.7883 0.3162 -0.5278
vn -0.7667 0.4307 -0.4761
vn -0.7667 0.4310 -0.4758
vn -0.7670 0.4346 -0.4720
vn -0.3357 0.4303 -0.8379
vn -0.3360 0.4300 -0.8380
vn -0.3319 0.4339 -0.8376
vn -0.8898 0.4285 0.1569
vn -0.5510 0.4228 0.7195
vn -0.5509 0.4225 0.7197
vn -0.5534 0.4280 0.7146
vn -0.0461 0.4181 0.9072
vn -0.0456 0.4186 0.9070
vn -0.0402 0.4244 0.9046
vn 0.5844 0.4163 0.6965
vn 0.9072 0.3971 0.1387
vn 0.9071 0.3973 0.1388
vn 0.9163 0.3810 0.1236
vn 0.8015 0.4035 -0.4414
vn 0.8014 0.4036 -0.4415
vn 0.8138 0.3891 -0.4317
vn 0.3093 0.4266 -0.8499
vn -0.7892 0.3404 -0.5112
vn -0.7683 0.3276 -0.5499
vn -0.7919 0.3421 -0.5058
vn -0.4089 0.3272 -0.8519
vn -0.3669 0.3401 -0.8659
vn -0.3611 0.3418 -0.8676
vn -0.9279 0.3351 0.1636
vn -0.4821 0.3107 0.8192
vn -0.5433 0.3348 0.7699
vn -0.5507 0.3376 0.7634
vn -0.0910 0.3322 0.9388
vn -0.1706 0.3071 0.9363
vn -0.0796 0.3356 0.9386
vn 0.6078 0.3254 0.7244
vn 0.9350 0.3223 0.1478
vn 0.9463 0.3087 0.0964
vn 0.9474 0.3070 0.0902
vn 0.8507 0.3140 -0.4216
vn 0.8257 0.3263 -0.4602
vn 0.8536 0.3125 -0.4169
vn 0.3224 0.3342 -0.8857
vn 0.3209 0.3458 -0.8817
vn 0.8372 0.3273 -0.4381
vn 0.8218 0.3371 -0.4593
vn 0.8413 0.3246 -0.4322
vn 0.9309 0.3337 0.1484
vn 0.9390 0.3226 0.1194
vn 0.9410 0.3195 0.1114
vn 0.6047 0.3390 0.7207
vn -0.0648 0.3444 0.9366
vn -0.0921 0.3331 0.9384
vn -0.0564 0.3478 0.9359
vn -0.5407 0.3370 0.7707
vn -0.5590 0.3474 0.7529
vn -0.5641 0.3502 0.7477
vn -0.9230 0.3487 0.1627
vn -0.3680 0.3448 -0.8635
vn -0.3532 0.3509 -0.8673
vn -0.3488 0.3527 -0.8683
vn -0.7926 0.3519 -0.4980
vn -0.7864 0.3458 -0.5119
vn -0.7944 0.3537 -0.4938
vn -0.7962 0.3517 -0.4924
vn -0.7946 0.3489 -0.4968
vn -0.7974 0.3537 -0.4890
vn -0.3516 0.3479 -0.8691
vn -0.3470 0.3506 -0.8699
vn -0.3434 0.3526 -0.8705
vn -0.9228 0.3491 0.1627
vn -0.5630 0.3416 0.7526
vn -0.5681 0.3461 0.7466
vn -0.5718 0.3493 0.7423
vn -0.0523 0.3425 0.9381
vn -0.0607 0.3376 0.9393
vn -0.0458 0.3464 0.9370
vn 0.6048 0.3385 0.7208
vn 0.9323 0.3301 0.1478
vn 0.9376 0.3214 0.1325
vn 0.9411 0.3154 0.1220
vn 0.8321 0.3267 -0.4483
vn 0.8230 0.3343 -0.4592
vn 0.8380 0.3215 -0.4409
vn 0.3209 0.3461 -0.8816
vn 0.3114 0.4133 -0.8557
vn 0.8085 0.3903 -0.4405
vn 0.8047 0.3942 -0.4440
vn 0.8188 0.3793 -0.4309
vn 0.9108 0.3884 0.1398
vn 0.9133 0.3842 0.1349
vn 0.9204 0.3718 0.1206
vn 0.5881 0.4035 0.7009
vn -0.0506 0.4058 0.9125
vn -0.0523 0.4044 0.9131
vn -0.0439 0.4117 0.9103
vn -0.5506 0.4084 0.7281
vn -0.5515 0.4099 0.7265
vn -0.5547 0.4150 0.7211
vn -0.8960 0.4150 0.1580
vn -0.3414 0.4160 -0.8429
vn -0.3402 0.4169 -0.8429
vn -0.3358 0.4205 -0.8429
vn -0.7709 0.4176 -0.4810
vn -0.7707 0.4166 -0.4822
vn -0.7716 0.4211 -0.4767
vn -0.2817 -0.5673 0.7738
vn -0.7595 -0.5864 0.2817
vn -0.5850 -0.7748 0.2396
vn -0.8004 -0.5244 0.2903
vn -0.5494 -0.8348 -0.0350
vn -0.3573 -0.9327 -0.0493
vn -0.3002 -0.9524 -0.0529
vn -0.2984 -0.9023 -0.3112
vn -0.6065 -0.5963 -0.5259
vn -0.6561 -0.5090 -0.5572
vn 0.0542 -0.5309 -0.8457
vn 0.0505 -0.5406 -0.8397
vn 0.0559 -0.5261 -0.8486
vn 0.5626 -0.6120 -0.5558
vn 0.2562 -0.8920 -0.3724
vn 0.6202 -0.5243 -0.5835
vn 0.2956 -0.9539 -0.0521
vn 0.2273 -0.9150 0.3333
vn 0.4285 -0.6159 0.6611
vn 0.4603 -0.5276 0.7140
vn 0.2254 -0.9481 0.2244
vn 0.1986 -0.9594 0.2004
vn 0.2320 -0.9450 0.2304
vn 0.8212 0.3176 -0.4742
vn 0.9352 0.3133 0.1649
vn 0.0000 0.3124 0.9499
vn -0.6098 0.3163 0.7267
vn 0.0000 1.0000 -0.0001
vn -0.3235 0.3247 -0.8888
vn -0.8192 0.3243 -0.4730
vn -0.7663 0.4264 -0.4805
vn -0.3405 0.4257 -0.8384
vn -0.5481 0.4163 0.7255
vn -0.0525 0.4112 0.9100
vn 0.8949 0.4174 0.1578
vn 0.7854 0.4214 -0.4534
vn -0.7627 0.3242 -0.5597
vn -0.4196 0.3238 -0.8480
vn -0.4665 0.3045 0.8304
vn -0.1918 0.3000 0.9345
vn 0.9308 0.3265 0.1641
vn 0.8175 0.3300 -0.4720
vn 0.8138 0.3419 -0.4699
vn 0.9264 0.3392 0.1634
vn -0.1053 0.3276 0.9389
vn -0.5323 0.3322 0.7786
vn -0.3749 0.3420 -0.8617
vn -0.7834 0.3430 -0.5183
vn -0.7930 0.3462 -0.5012
vn -0.3563 0.3451 -0.8683
vn -0.5580 0.3372 0.7582
vn -0.0692 0.3324 0.9406
vn 0.9266 0.3388 0.1634
vn 0.8139 0.3418 -0.4699
vn 0.7905 0.4084 -0.4564
vn 0.9006 0.4045 0.1588
vn -0.0605 0.3972 0.9158
vn -0.5465 0.4021 0.7346
vn -0.3467 0.4116 -0.8428
vn -0.7697 0.4123 -0.4874
vn -0.5190 -0.8253 0.2223
vn -0.5790 -0.8147 -0.0325
vn -0.2001 -0.9503 -0.2385
vn 0.0491 -0.5444 -0.8374
vn 0.1576 -0.9392 -0.3050
vn 0.1593 -0.9614 0.2243
vn 0.1940 -0.9612 0.1962
usemtl Bark
s 1
f 1//1 2//1 3//1
f 4//2 5//2 2//2
f 5//3 6//3 7//3
f 7//4 8//4 9//4
f 9//5 10//5 11//5
f 11//6 12//6 13//6
f 12//7 14//7 13//7
f 15//8 1//8 3//8
f 14//9 16//9 15//9
f 14//10 20//10 19//10
f 15//11 21//11 20//11
f 18//12 14//12 19//12
f 11//13 18//13 22//13
f 9//14 22//14 23//14
f 7//15 23//15 24//15
f 5//16 24//16 25//16
f 17//17 5//17 25//17
f 21//18 2//18 17//18
f 1//1 4//1 2//1
f 4//2 26//2 5//2
f 5//3 26//3 6//3
f 7//4 6//4 8//4
f 9//5 8//5 10//5
f 11//6 10//6 12//6
f 12//7 27//7 14//7
f 15//8 16//8 1//8
f 14//9 27//9 16//9
f 14//10 15//10 20//10
f 15//11 3//11 21//11
f 18//12 13//12 14//12
f 11//13 13//13 18//13
f 9//14 11//14 22//14
f 7//15 9//15 23//15
f 5//16 7//16 24//16
f 17//17 2//17 5//17
f 21//18 3//18 2//18
usemtl Leaves
f 28//19 29//19 30//19
f 29//20 31//21 32//22
f 31//23 33//24 32//25
f 34//26 35//27 33//27
f 35//28 36//29 37//30
f 36//31 38//32 37//33
f 38//34 39//34 40//34
f 28//35 41//35 34//35
f 42//36 30//37 43//38
f 40//39 42//40 43//41
f 47//42 48//43 49//44
f 48//45 50//46 49//47
f 51//48 52//48 47//48
f 53//49 51//50 54//51
f 55//52 53//53 54//54
f 56//55 57//55 55//55
f 58//56 56//57 59//58
f 60//59 58//60 59//61
f 61//62 60//62 50//62
f 62//63 63//64 64//65
f 63//66 65//67 64//68
f 66//69 67//69 62//69
f 68//70 66//71 69//72
f 70//73 68//74 69//75
f 71//76 72//76 70//76
f 73//77 71//78 74//79
f 75//80 73//81 74//82
f 76//83 75//83 65//83
f 77//84 78//84 79//84
f 78//85 80//86 81//87
f 80//88 82//89 81//90
f 82//91 83//91 84//91
f 84//92 85//93 86//94
f 85//95 87//96 86//97
f 87//98 88//98 89//98
f 90//99 79//100 91//101
f 89//102 90//103 91//104
f 92//105 93//106 94//107
f 93//108 95//109 94//110
f 96//111 97//111 92//111
f 98//112 96//113 99//114
f 100//115 98//116 99//117
f 101//118 102//118 100//118
f 103//119 101//120 104//121
f 105//122 103//123 104//124
f 106//125 105//125 95//125
f 107//126 108//126 109//126
f 108//127 110//128 111//129
f 110//130 112//131 111//132
f 112//133 113//133 114//133
f 114//134 115//135 116//136
f 115//137 117//138 116//139
f 117//140 118//140 119//140
f 120//141 109//142 121//143
f 119//144 120//145 121//146
f 46//147 60//147 137//147
f 60//148 44//149 137//150
f 44//151 56//152 138//153
f 138//154 55//155 139//156
f 55//157 45//158 139//159
f 54//160 140//161 45//162
f 51//163 141//163 140//163
f 142//164 50//165 46//166
f 47//167 142//168 141//169
f 28//19 143//19 29//19
f 29//20 143//170 31//21
f 31//23 34//171 33//24
f 34//26 41//26 35//27
f 35//28 41//172 36//29
f 36//31 144//173 38//32
f 38//34 144//34 39//34
f 31//35 143//35 34//35
f 28//35 42//35 36//35
f 39//35 144//174 36//35
f 36//35 41//35 28//35
f 34//35 143//35 28//35
f 42//35 39//35 36//35
f 42//36 28//175 30//37
f 40//39 39//176 42//40
f 47//42 52//177 48//43
f 48//45 61//178 50//46
f 51//48 134//48 52//48
f 53//49 134//179 51//50
f 55//52 57//180 53//53
f 56//55 135//55 57//55
f 58//56 135//181 56//57
f 60//59 136//182 58//60
f 61//62 136//62 60//62
f 62//63 67//183 63//64
f 63//66 76//184 65//67
f 66//69 122//69 67//69
f 68//70 122//185 66//71
f 70//73 72//186 68//74
f 71//76 123//76 72//76
f 73//77 123//187 71//78
f 75//80 124//188 73//81
f 76//83 124//83 75//83
f 77//84 125//84 78//84
f 78//85 125//189 80//86
f 80//88 126//190 82//89
f 82//91 126//91 83//91
f 84//92 83//191 85//93
f 85//95 127//192 87//96
f 87//98 127//98 88//98
f 90//99 77//193 79//100
f 89//102 88//194 90//103
f 92//105 97//195 93//106
f 93//108 106//196 95//109
f 96//111 128//111 97//111
f 98//112 128//197 96//113
f 100//115 102//198 98//116
f 101//118 129//118 102//118
f 103//119 129//199 101//120
f 105//122 130//200 103//123
f 106//125 130//125 105//125
f 107//126 131//126 108//126
f 108//127 131//201 110//128
f 110//130 132//202 112//131
f 112//133 132//133 113//133
f 114//134 113//203 115//135
f 115//137 133//204 117//138
f 117//140 133//140 118//140
f 120//141 107//205 109//142
f 119//144 118//206 120//145
f 46//147 50//147 60//147
f 60//148 59//207 44//149
f 44//151 59//208 56//152
f 138//154 56//209 55//155
f 55//157 54//210 45//158
f 54//160 51//211 140//161
f 51//163 47//163 141//163
f 142//164 49//212 50//165
f 47//167 49//213 142//168
